<?xml version="1.0" encoding="utf-8"?>
<!-- Generator: Adobe Illustrator 16.0.0, SVG Export Plug-In . SVG Version: 6.00 Build 0)  -->
<!DOCTYPE svg PUBLIC "-//W3C//DTD SVG 1.1//EN" "http://www.w3.org/Graphics/SVG/1.1/DTD/svg11.dtd">
<svg version="1.1" id="Layer_1" xmlns="http://www.w3.org/2000/svg" xmlns:xlink="http://www.w3.org/1999/xlink" x="0px" y="0px"
	 width="400px" height="400px" viewBox="0 0 400 400" style="enable-background:new 0 0 400 400;" xml:space="preserve">
<style type="text/css">
<![CDATA[
	.st0{fill:#31429A;stroke:#F8F7ED;stroke-miterlimit:10;}
	.st1{fill:#31B34A;stroke:#F8F7ED;stroke-miterlimit:10;}
	.st2{fill:#2FB34A;stroke:#F8F7ED;stroke-miterlimit:10;}
]]>
</style>
<ellipse class="st0" cx="200.173" cy="200.2" rx="175.602" ry="180.202"/>
<path class="st2" d="M184.147,25.042c0.375,3.118-2.393,6.399-5.328,7.151c-5.483,1.403-16.113-1.521-20.492,1.869
	c-1.523,1.178-5.114,10.847-3.694,12.792c2.435,3.336,8.468-0.403,11.1-1.117c6.35-1.723,10.194-2.929,11.551,4.249
	c0.787,4.165,1.003,11.215-2.991,12.86c-4.451,1.835-10.259-3.115-15.182-1.905c-4.009,0.985-7.832,5.785-10.518,8.875
	c-1.921,2.21-5.336,5.934-6.946,8.879c-2.444,4.477-2.155,9.1-5.803,13.046c-2.128,2.303-7.854,7.787-11.653,5.395
	c-4.462-2.809,1.606-9.189,1.563-12.415c-7.998-1.489-25.807-3.393-26.915,7.874c-0.741,7.528,6.287,17.914,8.286,25.216
	c4.494,2.297,7.161,4.053,10.774-0.165c0.269,5.921,0.431,11.491-2.225,16.855c-8.087,2.707,8.893,6.192,11.235,6.204
	c6.089,0.03,10.86-4.315,16.818-4.101c5.391,0.194,7.385,3.044,11.291,6.11c4.611,3.621,8.81,4.258,14.769,5.558
	c-1.527,12.346,8.52,19.372,14.097,28.872c2.631,4.482,2.798,10.851,3.019,16.182c0.212,5.138,1.45,12.518-0.113,17.532
	c-11.172-0.967-21.947-2.43-32.702-4.854c-11.175-2.52-14.236,6.705-18.608,14.229c-5.962,10.262-14.48,16.018-14.228,29.668
	c0.094,5.033,0.445,11.447,1.133,16.479c0.796,5.811,5.874,10.814-1.624,12.434c-4.635,1-15.707-1.434-18.532-4.74
	c-3.72-4.355-4.147-10.516-8.234-14.832c-5.482-5.787-8.004-11.699-7.641-20.746c0.321-7.984,1.19-16.717,2.102-24.555
	c0.864-7.428,2.679-13.234-0.042-20.165c-2.307-5.873-4.212-8.605-3.284-15.394c1.75-12.799,7.498-22.306,15.649-32.043
	c4.081-4.876,6.134-8.585,6.658-15.042c-1.177-1.74-3.22-3.344-5.722-3.255c0.086-6.858-2.158-10.103-4.829-15.485
	c-3.001-6.05-4.074-13.245-5.719-19.714c-1.578-6.206-3.083-5.337-7.98-8.221c-15.367-9.049,4.367-22.159,11.984-28.085
	c12.021-9.351,25.235-17.172,39.247-23.145c10.743-4.579,21.947-8.074,33.393-10.394c3.505-0.71,11.886-3.74,14.803-0.917
	C183.549,22.983,184.022,24.003,184.147,25.042z"/>
<path class="st2" d="M117,360.571c1.98-3.174,6.432-4.138,9.617-5.24c2.491-2.845,2.626-9.148,3.627-12.956
	c4.582-0.793,5.075,1.279,8.3,2.766c4.88,2.248,10.871,4.052,16.215,5.031c6.156,1.128,8.944,1.737,14.073,3.987
	c4.503,1.975,10.072,1.799,14.898,1.841c11.989,0.104,22.832,3.427,35.065,3.429c6.059,0.001,25.887-3.221,26.79,5.7
	c1.342,13.269-40.416,14.894-48.713,14.871c-15.317-0.042-28.534-4.122-42.7-6.887c-6.937-1.354-13.358-2.517-19.902-5.542
	c-4.87-2.252-11.201-6.797-16.127-7.571"/>
<path class="st2" d="M298.999,50.286c-6.615,0-13.312-0.167-19.9,0.057c-3.97,8.059,8.935,8.061,13.197,11.499
	c4.486,3.619,6.215,11.088,11.76,13.7c-0.178,3.569,0.639,5.253,1.915,8.405c1.44,3.56,6.828,8.229,6.772,12.024
	c-0.13,8.946-15.117,3.128-19.913,2.39c-2.556,6.119-0.609,11.188,4.46,14.655c8.739,5.977,12.39,5.892,20.564,0.689
	c5.38-3.423,13.146-4.652,19.431-5.147c3.576-0.282,10.225,1.227,12.442-2.401c2.872-4.7-2.521-6.299-5.012-9.029
	c-2.718-2.979-4.36-6.693-6.429-10.143C333.853,79.585,327.021,76.276,322,69.56c-5.678-7.593-17.564-15.713-25.857-19.845"/>
<path class="st1" d="M356.143,115.429c-8.828-1.264-10.359,8.488-18.172,10.456c-4.356,1.097-8.953,1.149-13.277,2.66
	c-7.218,2.52-12.643,7.768-18.835,12.039c-14.726,10.157-22.491,28.408-13.716,45.274c3.102,5.962,8.517,10.653,10.772,17.012
	c2.415,6.81,1.411,11.206,8.813,15.343c17.984,10.05,12.304-9.608,22.034-15.993c6.111-4.009,11.749-1.238,13.694,5.056
	c3.146,10.182-0.076,23.045-6.786,31.389c-8.504,10.576-20.459,22.109-22.384,36.181c-0.685,5.006-3.728,20.086-0.47,24.523
	c2.053,2.796,9.849,4.112,13.111,3.999c2.746-14.678,14.545-27.877,25.241-37.095c7.153-6.165,12.571-14.209,14.829-22.812
	c2.292-8.732,4.021-19.325,4-28.601c-0.021-9.742,1.623-19.115,1.144-28.572c-0.613-12.095-3.929-25.399-6.828-37.701
	c-2.337-9.915-5.849-25.462-12.601-33.156"/>
</svg>
